<svg width="80" height="80" viewBox="0 0 80 80" fill="none" xmlns="http://www.w3.org/2000/svg">
<g id="File cabinet">
<g id="Group">
<path id="Vector" d="M64.5162 5.96141H57.97V2.73438C57.97 1.22672 56.7433 0 55.2356 0H31.8848H25.4737C23.9661 0 22.7394 1.22672 22.7394 2.73438V5.96141H15.4844C13.8 5.96141 12.4297 7.33172 12.4297 9.01609V20.7812C12.4297 22.2964 14.7734 22.2964 14.7734 20.7812V9.01609C14.7734 8.63078 15.0991 8.30516 15.4844 8.30516H22.7394V10.8891H18.5656C17.9183 10.8891 17.3938 11.4138 17.3938 12.0609V38.2605C17.3938 38.9077 17.9183 39.4323 18.5656 39.4323H61.4352C62.0825 39.4323 62.607 38.9077 62.607 38.2605V12.0609C62.607 11.4138 62.0825 10.8891 61.4352 10.8891H57.9701V8.30516H64.5164C64.9017 8.30516 65.2273 8.63062 65.2273 9.01609V72.4705C65.2273 72.8558 64.9017 73.1814 64.5164 73.1814H15.4844C15.0991 73.1814 14.7734 72.8559 14.7734 72.4705V26.5625C14.7734 25.0473 12.4297 25.0473 12.4297 26.5625V72.4705C12.4297 74.1548 13.8 75.5252 15.4844 75.5252H16.9134V78.8281C16.9134 79.4753 17.438 80 18.0853 80H61.9153C62.5627 80 63.0872 79.4753 63.0872 78.8281V75.5252H64.5162C66.2006 75.5252 67.5709 74.1548 67.5709 72.4705V9.01609C67.5709 7.33172 66.2008 5.96141 64.5162 5.96141ZM55.2358 2.34375C55.4512 2.34375 55.6264 2.51906 55.6264 2.73438V4.94125H36.1053C35.9767 4.94125 35.8564 4.87797 35.7834 4.77203L34.1133 2.34375H55.2358ZM60.2633 37.0886H19.7373V13.2328H23.9111H56.7983H60.2633V37.0886ZM25.083 10.8891V2.73438C25.083 2.51906 25.2581 2.34375 25.4736 2.34375H31.2686L33.8525 6.10016C34.3627 6.84219 35.2048 7.285 36.1053 7.285H55.6264V10.8891H25.083ZM60.7434 77.6562H19.2572V75.5252H60.7434V77.6562Z" fill="#7A8B8C"/>
<path id="Vector_2" d="M60.2346 50.3121C60.2346 50.9432 60.7334 51.4578 61.3582 51.4831C61.385 51.4845 61.4142 51.4854 61.435 51.4856C61.744 51.4856 62.0407 51.3634 62.2603 51.1456C62.482 50.9256 62.6068 50.6261 62.6068 50.3137V43.0459C62.6068 42.3987 62.0823 41.874 61.435 41.874H18.5654C17.9181 41.874 17.3936 42.3987 17.3936 43.0459V69.2454C17.3936 69.8926 17.9181 70.4173 18.5654 70.4173H61.435C62.0823 70.4173 62.6068 69.8926 62.6068 69.2454V56.5615C62.6068 56.249 62.482 55.9496 62.2603 55.7296C62.0386 55.5096 61.7406 55.3925 61.4256 55.3896L61.3932 55.3904C60.752 55.3975 60.2345 55.9193 60.2345 56.5623C60.2345 56.6511 60.2443 56.7375 60.2631 56.8204V68.0736H19.7373V44.2176H60.2631V50.054C60.2445 50.137 60.2346 50.2234 60.2346 50.3121Z" fill="#7A8B8C"/>
<path id="Vector_3" d="M27.918 50.3058C27.2706 50.3058 26.7461 50.8305 26.7461 51.4777C26.7461 55.411 29.9461 58.611 33.8794 58.611H46.1206C50.0539 58.611 53.2539 55.411 53.2539 51.4775C53.1869 50.7633 52.7963 50.3727 52.082 50.3057L27.918 50.3058ZM46.1206 56.2672H33.8794C31.6425 56.2672 29.7589 54.7258 29.2347 52.6494H50.7652C50.2411 54.726 48.3575 56.2672 46.1206 56.2672Z" fill="#7A8B8C"/>
<path id="Vector_4" d="M52.082 19.5576H27.918C27.2706 19.5576 26.7461 20.0823 26.7461 20.7295C26.7461 24.6628 29.9461 27.8628 33.8794 27.8628H46.1206C50.0539 27.8628 53.2539 24.6628 53.2539 20.7295C53.2539 20.0823 52.7294 19.5576 52.082 19.5576ZM46.1206 25.519H33.8794C31.6425 25.519 29.7589 23.9778 29.2347 21.9014H50.7652C50.2411 23.9778 48.3575 25.519 46.1206 25.519Z" fill="#7A8B8C"/>
</g>
</g>
</svg>
