<svg width="69" height="98" viewBox="0 0 69 98" fill="none" xmlns="http://www.w3.org/2000/svg">
<g id="Group">
<path id="Vector" d="M68.6001 34.6753H57.2668V43.2161H61.5168V48.9321C61.5168 50.5195 60.2312 51.8112 58.6513 51.8112H57.2668V48.8976H40.2668V46.0507H45.9495C50.4662 46.1445 54.3539 41.9596 53.9601 37.4472L51.8753 6.02314C51.6698 2.92595 49.089 0.5 45.9999 0.5H23.2003C20.1112 0.5 17.5304 2.92595 17.3249 6.02314L16.5642 17.4868L19.3913 17.6762L20.152 6.21259C20.2585 4.60565 21.5976 3.34692 23.2003 3.34692H45.9997C47.6025 3.34692 48.9415 4.60565 49.048 6.21259L51.133 37.6367C51.3938 40.5594 48.8758 43.2708 45.9493 43.2038H23.2503C20.3252 43.271 17.8047 40.5594 18.0668 37.6367L19.2023 20.5232L16.3752 20.3337L15.2397 37.4472C14.8457 41.9596 18.734 46.1443 23.2503 46.0507H28.9334V48.8976H11.9334V51.8112H10.5489C8.96882 51.8112 7.68343 50.5195 7.68343 48.9321V43.2161H11.9334V34.6753H0.600098V43.2161H4.8501V48.9321C4.8501 52.0895 7.40652 54.6581 10.5489 54.6581H11.9334C11.9174 57.7551 14.4232 60.2862 17.5057 60.2853H30.3501V76.0345L29.148 83.3533H23.0779C19.921 83.3429 17.4178 86.0506 17.5871 89.2042C15.9383 89.7919 14.7537 91.374 14.7537 93.2297C14.7537 95.5844 16.6602 97.5 19.0037 97.5C21.3473 97.5 23.2537 95.5843 23.2537 93.2297C23.2537 91.374 22.0692 89.7919 20.4204 89.2042C20.2734 87.6234 21.4716 86.1906 23.0779 86.2002H33.1834V89.2042C31.5346 89.7919 30.3501 91.374 30.3501 93.2297C30.3501 95.5844 32.2566 97.5 34.6001 97.5C36.9436 97.5 38.8501 95.5843 38.8501 93.2297C38.8501 91.374 37.6656 89.7919 36.0168 89.2042V86.2002H46.1223C47.7288 86.1906 48.9268 87.6234 48.7798 89.2042C47.131 89.7919 45.9465 91.374 45.9465 93.2297C45.9465 95.5844 47.8529 97.5 50.1965 97.5C52.54 97.5 54.4465 95.5843 54.4465 93.2297C54.4465 91.374 53.2619 89.7919 51.6131 89.2042C51.7824 86.0506 49.279 83.3429 46.1223 83.3533H40.0522L38.8501 76.0345V68.826H36.0168V74.7279H33.1834V60.2853H36.0168V65.9791H38.8501V60.2853H51.6945C54.777 60.2862 57.2828 57.7551 57.2668 54.6581H58.6513C61.7937 54.6581 64.3501 52.0893 64.3501 48.9321V43.2161H68.6001V34.6753ZM3.43343 37.5222H9.1001V40.3692H3.43343V37.5222ZM19.0037 94.6533C18.2225 94.6533 17.5871 94.0148 17.5871 93.2299C17.5871 92.445 18.2225 91.8065 19.0037 91.8065C19.785 91.8065 20.4204 92.445 20.4204 93.2299C20.4204 94.0148 19.7848 94.6533 19.0037 94.6533ZM34.6001 94.6533C33.8189 94.6533 33.1834 94.0148 33.1834 93.2299C33.1834 92.445 33.8189 91.8065 34.6001 91.8065C35.3813 91.8065 36.0168 92.445 36.0168 93.2299C36.0168 94.0148 35.3813 94.6533 34.6001 94.6533ZM50.1965 94.6533C49.4152 94.6533 48.7798 94.0148 48.7798 93.2299C48.7798 92.445 49.4152 91.8065 50.1965 91.8065C50.9777 91.8065 51.6131 92.445 51.6131 93.2299C51.6131 94.0148 50.9777 94.6533 50.1965 94.6533ZM32.0197 83.3535L32.9689 77.5748H36.2313L37.1805 83.3535H32.0197ZM31.7668 46.0507H37.4334V48.8976H31.7668V46.0507ZM54.4334 54.6864C54.4334 56.2039 53.2047 57.4384 51.6945 57.4384H17.5057C15.9955 57.4384 14.7668 56.2037 14.7668 54.6864V51.7445H54.4334V54.6864ZM65.7668 40.3692H60.1001V37.5222H65.7668V40.3692Z" fill="#213E40"/>
<path id="Vector_2" d="M23.2905 6.19385H26.1239V9.04077H23.2905V6.19385Z" fill="#213E40"/>
<path id="Vector_3" d="M28.9517 6.19385H31.785V9.04077H28.9517V6.19385Z" fill="#213E40"/>
</g>
</svg>
