<svg width="115" height="80" viewBox="0 0 115 80" fill="none" xmlns="http://www.w3.org/2000/svg">
<g id="Divan" clip-path="url(#clip0_972_4883)">
<g id="Group">
<path id="Vector" d="M107.143 46.1118H103.099C98.608 45.5513 94.2722 43.83 90.6339 41.1246L90.3779 40.9343C85.9995 37.6784 82.7984 33.3374 81.1212 28.3805C77.9929 19.1358 69.3294 12.9246 59.5636 12.9246C58.1257 12.9246 56.6857 13.0602 55.2836 13.3277C54.0233 13.5675 52.71 13.078 51.9394 12.079C47.0341 5.72019 39.6209 2.07324 31.6003 2.07324C17.4429 2.07324 5.92537 13.5908 5.92537 27.7481V29.78C2.90635 30.7545 0.71582 33.5905 0.71582 36.9298V46.7114C0.71582 54.3739 6.72158 60.6575 14.2728 61.1082V74.2908H20.0557L25.5718 61.1367H89.3814L94.8974 74.2908H100.68V61.1367H107.142C111.285 61.1367 114.655 57.7667 114.655 53.6242C114.655 49.4818 111.285 46.1118 107.143 46.1118ZM31.6005 5.00879C38.7038 5.00879 45.2699 8.23927 49.6149 13.872C51.0771 15.7676 53.4599 16.6635 55.8336 16.2114C57.0548 15.9783 58.3097 15.8602 59.5634 15.8602C68.0695 15.8602 75.6152 21.2698 78.3399 29.3212C80.2095 34.8461 83.7663 39.6764 88.6257 43.2897L88.8817 43.4801C90.2299 44.4824 91.6663 45.3592 93.1643 46.1115H17.7733C16.6525 46.1115 15.7408 45.1998 15.7408 44.079V36.9296C15.7408 33.0006 12.7084 29.7686 8.86158 29.4458V27.7477C8.86158 15.2095 19.0621 5.00879 31.6005 5.00879ZM18.1034 71.3548H17.2086V61.1367H22.3883L18.1034 71.3548ZM97.7448 71.3548H96.85L92.5649 61.1367H97.7446V71.3548H97.7448ZM107.143 57.7978H15.1411C9.02808 57.7978 4.0547 52.8245 4.0547 46.7112V36.9296C4.0547 34.6282 5.92692 32.756 8.2283 32.756C10.5297 32.756 12.4019 34.6282 12.4019 36.9296V44.079C12.4019 47.0409 14.8115 49.4504 17.7733 49.4504H107.143C108.85 49.4504 110.32 50.4824 110.965 51.9546H49.9643V55.2935H110.965C110.32 56.7657 108.85 57.7978 107.143 57.7978Z" fill="#7A8B8C"/>
<path id="Vector_2" d="M9.89747 36.0947H6.55859V39.4336H9.89747V36.0947Z" fill="#7A8B8C"/>
<path id="Vector_3" d="M45.7907 51.9551H32.8525V55.294H45.7907V51.9551Z" fill="#7A8B8C"/>
<path id="Vector_4" d="M19.0801 22.7393H15.7412V26.0781H19.0801V22.7393Z" fill="#7A8B8C"/>
<path id="Vector_5" d="M44.1211 22.7393H40.7822V26.0781H44.1211V22.7393Z" fill="#7A8B8C"/>
<path id="Vector_6" d="M69.1631 22.7393H65.8242V26.0781H69.1631V22.7393Z" fill="#7A8B8C"/>
<path id="Vector_7" d="M28.6793 51.5371H25.7578V54.876H28.6793V51.5371Z" fill="#7A8B8C"/>
</g>
</g>
<defs>
<clipPath id="clip0_972_4883">
<rect width="113.939" height="80" fill="white" transform="translate(0.230469)"/>
</clipPath>
</defs>
</svg>
