<svg width="100" height="80" viewBox="0 0 100 80" fill="none" xmlns="http://www.w3.org/2000/svg">
<g id="Sofa" clip-path="url(#clip0_972_4869)">
<g id="Group">
<path id="Vector" d="M51.5632 71.2015C52.4335 70.5737 52.6301 69.3593 52.0023 68.4889C51.3745 67.6186 50.1601 67.422 49.2897 68.0498C48.4194 68.6776 48.2228 69.8921 48.8506 70.7624C49.4784 71.6327 50.6928 71.8293 51.5632 71.2015Z" fill="#7A8B8C"/>
<path id="Vector_2" d="M89.472 26.9111C88.6197 26.9111 87.7851 27.0123 86.979 27.2037L88.4899 23.4275C91.3251 16.3347 87.2452 8.36952 79.8431 6.51794C75.003 5.30835 69.778 7.05967 66.6797 11.2253C64.3961 6.55369 59.6621 3.59375 54.461 3.59375H46.3699C41.2294 3.59375 36.4842 6.49306 34.1719 11.1847C31.1099 7.04782 25.9204 5.28581 21.0951 6.49248C13.653 8.35184 9.62728 16.4167 12.6014 23.4778L14.2126 27.3038C13.2935 27.049 12.3358 26.9111 11.359 26.9111C5.46611 26.9111 0.671875 31.7053 0.671875 37.5982C0.671875 41.6445 2.96513 45.3135 6.5012 47.1198V58.0008C6.5012 65.2399 12.1862 71.1745 19.3257 71.5789V75.4888C19.3257 76.562 20.1957 77.4319 21.2688 77.4319C22.342 77.4319 23.2119 76.562 23.2119 75.4888V71.6026H41.6715C42.7447 71.6026 43.6146 70.7326 43.6146 69.6595C43.6146 68.5863 42.7447 67.7163 41.6715 67.7163H20.103C14.7458 67.7163 10.3874 63.358 10.3874 58.0008V45.8447C10.3874 45.0212 9.86842 44.2871 9.09195 44.0127C6.38015 43.054 4.55809 40.4761 4.55809 37.5982C4.55809 33.8482 7.60897 30.7973 11.359 30.7973C15.0839 30.7973 18.1599 33.8118 18.1599 37.5982V58.0008C18.1599 59.074 19.0298 59.9439 20.103 59.9439H80.728C81.8011 59.9439 82.6711 59.074 82.6711 58.0008C82.6711 55.7841 82.6711 40.7538 82.6711 37.5982C82.6711 33.8594 85.6934 30.7973 89.472 30.7973C93.222 30.7973 96.2728 33.8482 96.2728 37.5982C96.2728 40.4761 94.4508 43.054 91.739 44.0127C90.9627 44.2873 90.4435 45.0212 90.4435 45.8447V58.0008C90.4435 63.358 86.0851 67.7163 80.728 67.7163H59.1595C58.0863 67.7163 57.2163 68.5863 57.2163 69.6595C57.2163 70.7326 58.0863 71.6026 59.1595 71.6026H77.619V75.4888C77.619 76.562 78.4889 77.4319 79.5621 77.4319C80.6353 77.4319 81.5052 76.562 81.5052 75.4888V71.5789C88.6448 71.1745 94.3297 65.2399 94.3297 58.0008V47.1198C97.8658 45.3135 100.159 41.6445 100.159 37.5982C100.159 31.7053 95.3648 26.9111 89.472 26.9111ZM16.1829 21.9693C14.1308 17.0976 16.9135 11.5428 22.0375 10.2627C26.9928 9.02319 31.9386 12.351 32.6595 17.4063C33.3258 22.0698 36.216 42.2952 36.4884 44.2016C31.2401 44.0466 26.1616 45.7147 22.0461 48.9055V37.5982C22.0461 35.5021 21.4412 33.4825 20.2977 31.7412L16.1829 21.9693ZM48.4724 56.0577H22.0461V54.1721C26.2337 49.5928 32.3257 47.3897 38.4834 48.2641C42.247 48.799 45.6844 50.4312 48.4724 52.9992V56.0577ZM40.4817 44.6748L36.7515 18.5687C36.7515 18.5685 36.7515 18.5683 36.7515 18.5681C35.9205 12.726 40.4514 7.47997 46.3699 7.47997H54.461C60.356 7.47997 64.908 12.7013 64.081 18.5559C64.0802 18.5615 64.0802 18.567 64.0794 18.5724C64.0792 18.5743 64.0786 18.5761 64.0782 18.578L60.349 44.6748C56.6668 45.4421 53.2817 47.0949 50.4153 49.5308C47.5492 47.0951 44.1639 45.4421 40.4817 44.6748ZM78.7849 56.0577H52.3586V53C55.1467 50.4318 58.5839 48.799 62.3473 48.2641C68.5058 47.3893 74.5973 49.5928 78.7849 54.1721V56.0577ZM84.8816 21.9843L81.465 30.5229C79.7348 32.4775 78.7849 34.9736 78.7849 37.5982V48.9055C74.6695 45.7147 69.5914 44.0462 64.3425 44.2016C64.4018 43.7872 64.5061 43.0571 68.1559 17.513C68.8863 12.3997 73.8907 9.03543 78.9001 10.288C84.0365 11.5729 86.8367 17.0933 84.8816 21.9843Z" fill="#7A8B8C"/>
</g>
</g>
<defs>
<clipPath id="clip0_972_4869">
<rect width="99.4872" height="80" fill="white" transform="translate(0.0566406)"/>
</clipPath>
</defs>
</svg>
