<svg width="81" height="80" viewBox="0 0 81 80" fill="none" xmlns="http://www.w3.org/2000/svg">
<g id="Wardrobe">
<g id="Group">
<path id="Vector" d="M71.3612 66.6526H70.7292V57.2474C70.7292 56.6004 70.2049 56.0761 69.558 56.0761C68.9112 56.0761 68.3868 56.6004 68.3868 57.2474V66.6526H12.4137V4.61259C12.4137 3.36079 13.4321 2.34245 14.6839 2.34245H66.1168C67.3686 2.34245 68.387 3.36079 68.387 4.61259V52.2562C68.387 52.9032 68.9114 53.4274 69.5582 53.4274C70.205 53.4274 70.7294 52.9032 70.7294 52.2562V4.61259C70.7292 2.06916 68.6601 0 66.1167 0H14.6839C12.1405 0 10.0713 2.06916 10.0713 4.61259V66.6526H9.4393C7.93107 66.6526 6.7041 67.8796 6.7041 69.3878V72.0282C6.7041 73.5364 7.93107 74.7635 9.4393 74.7635H10.0713V77.8679C10.0713 79.0435 11.0278 80 12.2035 80H14.5271C15.3463 80 16.1026 79.5217 16.4537 78.7813L18.3587 74.7634H23.1345C23.7813 74.7634 24.3057 74.2391 24.3057 73.5922C24.3057 72.9452 23.7813 72.4209 23.1345 72.4209H9.4393C9.2227 72.4209 9.04655 72.2446 9.04655 72.028V69.3876C9.04655 69.171 9.2227 68.9949 9.4393 68.9949H71.3612C71.5778 68.9949 71.754 69.171 71.754 69.3876V72.028C71.754 72.2446 71.5778 72.4209 71.3612 72.4209H28.1258C27.4789 72.4209 26.9546 72.9452 26.9546 73.5922C26.9546 74.2391 27.4789 74.7634 28.1258 74.7634H62.4418L64.3469 78.7813C64.6979 79.5215 65.4542 79.9998 66.2734 79.9998H68.597C69.7728 79.9998 70.7292 79.0433 70.7292 77.8677V74.7634H71.3612C72.8695 74.7634 74.0964 73.5364 74.0964 72.028V69.3876C74.0964 67.8797 72.8695 66.6526 71.3612 66.6526ZM14.3942 77.6576H12.4137V74.7635H15.7664L14.3942 77.6576ZM68.3868 77.6576H66.4063L65.0341 74.7635H68.3868V77.6576Z" fill="#7A8B8C"/>
<path id="Vector_2" d="M20.6389 7.33952C21.2858 7.33952 21.8102 6.81528 21.8102 6.16829C21.8102 5.52131 21.2858 4.99707 20.6389 4.99707H16.2398C15.593 4.99707 15.0686 5.52131 15.0686 6.16829V62.8265C15.0686 63.4734 15.593 63.9977 16.2398 63.9977H64.5611C65.2079 63.9977 65.7323 63.4734 65.7323 62.8265V6.16829C65.7323 5.52131 65.2079 4.99707 64.5611 4.99707H25.6302C24.9834 4.99707 24.459 5.52131 24.459 6.16829C24.459 6.81528 24.9834 7.33952 25.6302 7.33952H39.2292V61.6552H17.411V7.33952H20.6389ZM41.5717 7.33952H63.3898V61.6552H41.5717V7.33952Z" fill="#7A8B8C"/>
<path id="Vector_3" d="M36.5449 35.7779C36.5449 33.8649 34.9886 32.3086 33.0756 32.3086C31.1626 32.3086 29.6064 33.8649 29.6064 35.7779C29.6064 37.6908 31.1628 39.2471 33.0756 39.2471C34.9886 39.2471 36.5449 37.6908 36.5449 35.7779ZM31.9489 35.7779C31.9489 35.1565 32.4544 34.651 33.0756 34.651C33.697 34.651 34.2025 35.1565 34.2025 35.7779C34.2025 36.3993 33.697 36.9046 33.0756 36.9046C32.4544 36.9046 31.9489 36.3993 31.9489 35.7779Z" fill="#7A8B8C"/>
<path id="Vector_4" d="M47.7252 32.3086C45.8122 32.3086 44.2559 33.8649 44.2559 35.7779C44.2559 37.6908 45.8122 39.2471 47.7252 39.2471C49.6382 39.2471 51.1943 37.6908 51.1943 35.7779C51.1943 33.8648 49.638 32.3086 47.7252 32.3086ZM47.7252 36.9045C47.1038 36.9045 46.5983 36.3991 46.5983 35.7778C46.5983 35.1564 47.1038 34.6509 47.7252 34.6509C48.3466 34.6509 48.8519 35.1564 48.8519 35.7778C48.8519 36.3991 48.3464 36.9045 47.7252 36.9045Z" fill="#7A8B8C"/>
</g>
</g>
</svg>
